:SAMPLES-PER-SECOND 30
:FULLY-SPECIFIED
:DEGREES
215
root  8.448310912 38.41177873 -1.686173349 -6.257995605 -53.48799896 2.613006592
lowerback  9.56017971 0.9522659779 -3.714620113
upperback  4.61646986 0.8817390203 1.451910019
thorax  -0.6395599842 0.3357799947 3.507509947
lowerneck  1.438799977 8.076140404 -1.618280053
upperneck  17.98590088 11.15229988 -2.741110086
head  5.271460056 5.065480232 -0.1421380043
lclavicle  0 -9.442270133e-015 7.951389973e-016
lhumerus  22.52639961 9.629389763 61.89279938
lradius  2.176162312e-031 -2.780856276e-031 128.0449982
lwrist  -7.062250077e-031 -0 22.69709969
lhand  -1.496451383e-031 -27.76390076 20.11240005
lfingers  90 7.125020027 -90
lthumb  89.89689403 5.08795885 91.16245106
rclavicle  0 -9.442270133e-015 7.951389973e-016
rhumerus  20.1128006 26.87660027 -75.53829956
rradius  -1.935061204e-031 2.953706515e-031 123.2300034
rwrist  0 -4.413906298e-032 -36.07580185
rhand  -7.920061211e-032 -33.2840004 9.303460121
rfingers  -90 -7.125020027 -90
rthumb  -92.93752616 -24.25625642 -97.11982154
rfemur  -16.14030075 12.91320038 2.782399893
rtibia  -0 0 60.04600143
rfoot  -0 -14.62909985 -9.264419556
rtoes  5.373923086 19.29304026 -105.8922705
lfemur  -13.72529984 10.52690029 -18.7779007
ltibia  -0 0 64.31990051
lfoot  -0 -24.60300064 11.05160046
ltoes  -4.250644065 -19.5611806 -102.515957
216
root  8.298155266 38.2197763 -1.636835534 -5.589996338 -53.85500336 1.753005981
lowerback  8.815119743 0.6972339749 -3.263750076
upperback  4.533360004 0.6111360192 1.730749965
thorax  -0.2930780053 0.2005580068 3.572799921
lowerneck  1.775570035 8.148449898 -1.643300056
upperneck  17.90029907 11.17689991 -2.407910109
head  5.168149948 5.101650238 -0.05474970117
lclavicle  0 -9.442270133e-015 7.951389973e-016
lhumerus  20.96719933 9.547189713 61.82540131
lradius  2.234018162e-031 -2.734594465e-031 129.246994
lwrist  -7.062250077e-031 2.648343779e-031 21.84490013
lhand  -1.496451383e-031 -27.76390076 20.11240005
lfingers  90 7.125020027 -90
lthumb  89.89689403 5.08795885 91.16245106
rclavicle  0 -9.442270133e-015 7.951389973e-016
rhumerus  19.03479958 27.06920052 -76.06030273
rradius  -1.962812534e-031 2.93533831e-031 123.7699966
rwrist  0 1.324171889e-031 -35.95679855
rhand  -7.920061211e-032 -33.2840004 9.303460121
rfingers  -90 -7.125020027 -90
rthumb  -92.93752616 -24.25625642 -97.11982154
rfemur  -14.30459976 13.97599983 3.352540016
rtibia  -0 0 57.9856987
rfoot  -0 -17.43659973 -8.87112999
rtoes  5.373923086 19.29304026 -105.8922705
lfemur  -13.54629993 10.81000042 -17.75760078
ltibia  -0 0 65.02410126
lfoot  -0 -25.38199997 9.684060097
ltoes  -4.250644065 -19.5611806 -102.515957
217
root  8.133466976 38.03600101 -1.602593369 -4.645996094 -54.19000244 0.7489929199
lowerback  8.167719841 0.5728319883 -3.087409973
upperback  4.235509872 0.4885160029 2.202409983
thorax  -0.237142995 0.1443119943 3.975990057
lowerneck  1.963639975 8.114620209 -1.56280005
upperneck  18.2852993 11.09130001 -2.174679995
head  5.247089863 5.066319942 -0.0001033259978
lclavicle  0 -9.442270133e-015 7.951389973e-016
lhumerus  19.125 9.021699905 62.12779999
lradius  2.291735161e-031 -2.686409125e-031 130.4669952
lwrist  -7.062250077e-031 -8.827812596e-032 20.48250008
lhand  -1.496451383e-031 -27.76390076 20.11240005
lfingers  90 7.125020027 -90
lthumb  89.89689403 5.08795885 91.16245106
rclavicle  0 -9.442270133e-015 7.951389973e-016
rhumerus  17.58279991 27.08139992 -76.4957962
rradius  -1.990237272e-031 2.916813268e-031 124.3069992
rwrist  7.062250077e-031 2.648343779e-031 -35.94390106
rhand  -7.920061211e-032 -33.2840004 9.303460121
rfingers  -90 -7.125020027 -90
rthumb  -92.93752616 -24.25625642 -97.11982154
rfemur  -12.90159988 14.83440018 4.005889893
rtibia  -0 0 56.01800156
rfoot  -0 -20.21389961 -7.624889851
rtoes  5.373923086 19.29304026 -105.8922705
lfemur  -13.63259983 11.43010044 -16.49169922
ltibia  -0 0 66.10399628
lfoot  -0 -25.14599991 8.808199883
ltoes  -4.250644065 -19.5611806 -102.515957
218
root  7.981599973 37.86133293 -1.582544432 -3.36000061 -54.45200348 -0.5160064697
lowerback  7.514709949 0.4272980094 -2.661070108
upperback  3.890949965 0.3497129977 2.537389994
thorax  -0.2212039977 0.08643379807 4.094369888
lowerneck  2.017430067 8.118740082 -1.169659972
upperneck  18.7737999 11.0472002 -1.880650043
head  5.394360065 5.071819782 0.03546430171
lclavicle  0 -9.442270133e-015 7.951389973e-016
lhumerus  17.3390007 8.255559921 62.3125
lradius  2.340994154e-031 -2.643594221e-031 131.526001
lwrist  -7.062250077e-031 -8.827812596e-032 18.72220039
lhand  -1.496451383e-031 -27.76390076 20.11240005
lfingers  90 7.125020027 -90
lthumb  89.89689403 5.08795885 91.16245106
rclavicle  0 -9.442270133e-015 7.951389973e-016
rhumerus  16.07189941 26.90719986 -77.25689697
rradius  -2.012426169e-031 2.901548716e-031 124.7440033
rwrist  0 8.827812596e-032 -35.86429977
rhand  -7.920061211e-032 -33.2840004 9.303460121
rfingers  -90 -7.125020027 -90
rthumb  -92.93752616 -24.25625642 -97.11982154
rfemur  -11.94190025 15.38619995 4.817850113
rtibia  -0 0 54.44779968
rfoot  -0 -22.10429955 -6.585380077
rtoes  5.373923086 19.29304026 -105.8922705
lfemur  -14.17930031 11.67669964 -14.75809956
ltibia  -0 0 67.46369934
lfoot  4.860723739e-032 -24.75919914 5.916389942
ltoes  -4.250644065 -19.5611806 -102.515957
219
root  7.849133109 37.67733236 -1.580473382 -2.240005493 -54.80400085 -1.699996948
lowerback  7.092569828 0.3246420026 -2.322629929
upperback  3.565439939 0.2515079975 2.85029006
thorax  -0.3156740069 0.04796539992 4.235209942
lowerneck  2.095639944 8.123470306 -0.7421439886
upperneck  19.16300011 11.0145998 -1.698600054
head  5.515739918 5.083109856 0.02886779979
lclavicle  0 -9.442270133e-015 7.951389973e-016
lhumerus  15.43560028 7.511300087 62.66799927
lradius  2.377812709e-031 -2.610526912e-031 132.3289948
lwrist  -1.412450015e-030 -0 16.60289955
lhand  -1.496451383e-031 -27.76390076 20.11240005
lfingers  90 7.125020027 -90
lthumb  89.89689403 5.08795885 91.16245106
rclavicle  0 -9.442270133e-015 7.951389973e-016
rhumerus  14.49860001 26.7772007 -77.99359894
rradius  -2.02834751e-031 2.890441214e-031 125.0589981
rwrist  7.062250077e-031 1.324171889e-031 -35.72750092
rhand  -7.920061211e-032 -33.2840004 9.303460121
rfingers  -90 -7.125020027 -90
rthumb  -92.93752616 -24.25625642 -97.11982154
rfemur  -11.2531004 15.80350018 5.571080208
rtibia  -0 0 53.52109909
rfoot  -0 -23.34269905 -6.546700001
rtoes  5.373923086 19.29304026 -105.8922705
lfemur  -14.86030006 12.20759964 -12.91800022
ltibia  -0 0 69.22850037
lfoot  4.805088987e-032 -23.2791996 3.354389906
ltoes  -4.250644065 -19.5611806 -102.515957
220
root  7.735466394 37.57466594 -1.562477754 -1.330001831 -55.26200104 -2.904998779
lowerback  7.011839867 0.2366770059 -1.956680059
upperback  3.358400106 0.1636819988 3.169470072
thorax  -0.4770199955 0.01143530011 4.366650105
lowerneck  2.15376997 8.125149727 -0.526391983
upperneck  19.34149933 10.99610043 -1.620290041
head  5.569270134 5.087480068 0.01995839924
lclavicle  0 -9.442270133e-015 7.951389973e-016
lhumerus  13.53899956 6.933300018 63.2010994
lradius  2.40492928e-031 -2.585567481e-031 132.927002
lwrist  -7.062250077e-031 -0 14.4975996
lhand  -1.496451383e-031 -27.76390076 20.11240005
lfingers  90 7.125020027 -90
lthumb  89.89689403 5.08795885 91.16245106
rclavicle  0 -9.442270133e-015 7.951389973e-016
rhumerus  13.06410027 26.74279976 -78.65640259
rradius  -2.036512051e-031 2.88469456e-031 125.2210007
rwrist  7.062250077e-031 2.648343779e-031 -35.82320023
rhand  -7.920061211e-032 -33.2840004 9.303460121
rfingers  -90 -7.125020027 -90
rthumb  -92.93752616 -24.25625642 -97.11982154
rfemur  -10.93500042 15.95149994 6.390960217
rtibia  -0 0 53.10340118
rfoot  -0 -23.80430031 -7.952390194
rtoes  5.373923086 19.29304026 -105.8922705
lfemur  -15.38339996 12.67759991 -11.01329994
ltibia  -0 0 71.09159851
lfoot  5.308619533e-032 -20.70829964 0.7172409892
ltoes  -4.250644065 -19.5611806 -102.515957
221
root  7.661533356 37.46977678 -1.545648875 -0.4739990234 -55.68199921 -4.287002563
lowerback  7.183559895 0.06533060223 -1.335409999
upperback  3.309240103 -0.02678560093 3.330630064
thorax  -0.6069399714 -0.07819259912 4.196819782
lowerneck  1.978880048 8.183150291 -0.06866169721
upperneck  19.52560043 11.06270027 -1.591789961
head  5.680630207 5.144909859 -0.02653810009
lclavicle  0 -9.442270133e-015 7.951389973e-016
lhumerus  11.81529999 6.404530048 63.57849884
lradius  2.428072023e-031 -2.563846775e-031 133.4420013
lwrist  -7.062250077e-031 -0 12.58549976
lhand  -1.496451383e-031 -27.76390076 20.11240005
lfingers  90 7.125020027 -90
lthumb  89.89689403 5.08795885 91.16245106
rclavicle  0 -9.442270133e-015 7.951389973e-016
rhumerus  11.87069988 26.62870026 -79.60169983
rradius  -2.038525497e-031 2.883272071e-031 125.2610016
rwrist  7.062250077e-031 3.972515668e-031 -35.91600037
rhand  -7.920061211e-032 -33.2840004 9.303460121
rfingers  -90 -7.125020027 -90
rthumb  -92.93752616 -24.25625642 -97.11982154
rfemur  -10.66139984 15.6541996 7.237360001
rtibia  -0 0 53.01869965
rfoot  -0 -24.44790077 -6.715789795
rtoes  5.373923086 19.29304026 -105.8922705
lfemur  -15.94649982 12.91849995 -8.925880432
ltibia  -0 0 73.08229828
lfoot  4.626919218e-032 -17.45319939 -2.417099953
ltoes  -4.250644065 -19.5611806 -102.515957
